<svg id="Layer_1" data-name="Layer 1" xmlns="http://www.w3.org/2000/svg" width="475" height="200">
    <defs>
        <style>
            .cls-1,.cls-2,.cls-3,.cls-4{fill:none;stroke-linecap:round;stroke-width:3px;}
            .cls-1{stroke:#be1e2d;}
            .cls-2{stroke:#00a651;}
            .cls-3{stroke:#00aeef;}
            .cls-4{stroke:#231f20;stroke-miterlimit:10;}
        </style>
    </defs>
    <title>extrusion_2</title>
    <path class="cls-1" d="M182.88,680.69h31.19" transform="translate(-77.3 -535.86)"/>
    <path class="cls-2" d="M224.28,651.73H196.52" transform="translate(-77.3 -535.86)"/>
    <line class="cls-1" x1="140.23" y1="184.43" x2="208.77" y2="92.48"/>
    <line class="cls-2" x1="192.9" y1="159.16" x2="178.27" y2="184.43"/>
    <line class="cls-2" x1="265.64" y1="184.43" x2="251.4" y2="159.16"/>
    <line class="cls-1" x1="236.86" y1="92.48" x2="305.07" y2="184.43"/>
    <line class="cls-2" x1="222.55" y1="107.96" x2="203.34" y2="141.14"/>
    <path class="cls-3" d="M318.55,677" transform="translate(-77.3 -535.86)"/>
    <line class="cls-2" x1="241.25" y1="141.14" x2="222.55" y2="107.96"/>
    <line class="cls-2" x1="328.04" y1="184.43" x2="294.57" y2="92.48"/>
    <line class="cls-1" x1="341.84" y1="139.76" x2="363.57" y2="184.43"/>
    <path class="cls-3" d="M507,720.3" transform="translate(-77.3 -535.86)"/>
    <path class="cls-1" d="M544.28,717l2.85,3.35" transform="translate(-77.3 -535.86)"/>
    <line class="cls-2" x1="178.27" y1="184.43" x2="140.23" y2="184.43"/>
    <line class="cls-2" x1="251.4" y1="159.16" x2="192.9" y2="159.16"/>
    <line class="cls-2" x1="305.07" y1="184.43" x2="265.64" y2="184.43"/>
    <line class="cls-1" x1="208.77" y1="92.48" x2="236.86" y2="92.48"/>
    <line class="cls-1" x1="203.34" y1="141.14" x2="241.25" y2="141.14"/>
    <line class="cls-2" x1="363.57" y1="184.43" x2="328.04" y2="184.43"/>
    <path class="cls-2" d="M547.13,720.3H507" transform="translate(-77.3 -535.86)"/>
    <line class="cls-1" x1="324.44" y1="104.02" x2="334.55" y2="124.78"/>
    <path class="cls-1" d="M138.29,701.1c11.65,0,22-2.79,30.73-8.19a60,60,0,0,0,13.86-12.22" transform="translate(-77.3 -535.86)"/>
    <path class="cls-2" d="M175.4,638.89a56.79,56.79,0,0,0-26.68,6.6c-8.93,4.64-16.9,11.56-24,21.19-5.83,7.86-8.87,14.59-8.86,20" transform="translate(-77.3 -535.86)"/>
    <path class="cls-2" d="M196.52,651.73c0-.16,0-.31,0-.47" transform="translate(-77.3 -535.86)"/>
    <path class="cls-2" d="M224.72,648.17a14.16,14.16,0,0,1-.44,3.56" transform="translate(-77.3 -535.86)"/>
    <path class="cls-1" d="M78.81,698.75c-.18-9.39,5.35-20.33,15.82-32.37a110.34,110.34,0,0,1,44.26-31.25,116,116,0,0,1,42.58-8" transform="translate(-77.3 -535.86)"/>
    <path class="cls-2" d="M214.07,680.69c-6.73,11.45-17.77,21.56-33.33,29.89-16.54,8.87-35.35,13.51-55.62,13.51" transform="translate(-77.3 -535.86)"/>
    <path class="cls-2" d="M449.18,675.62h-30" transform="translate(-77.3 -535.86)"/>
    <path class="cls-2" d="M487.82,659.19c-.13,3.91-3.43,6.76-9.95,8.46" transform="translate(-77.3 -535.86)"/>
    <path class="cls-1" d="M371.87,628.35H428.7" transform="translate(-77.3 -535.86)"/>
    <path class="cls-2" d="M430.75,639.88h-29" transform="translate(-77.3 -535.86)"/>
    <path class="cls-1" d="M442.93,660.65c6.17,0,10.5-.46,12.95-1.38,2.16-.79,3.36-1.95,3.63-3.47" transform="translate(-77.3 -535.86)"/>
    <path class="cls-1" d="M115.82,686.67a11.69,11.69,0,0,0,1,4.94c2.89,6.25,10.08,9.49,21.43,9.49" transform="translate(-77.3 -535.86)"/>
    <path class="cls-2" d="M196.51,651.26c-.08-3.46-1-6-2.71-7.74-3.14-3.11-9.25-4.63-18.4-4.63" transform="translate(-77.3 -535.86)"/>
    <path class="cls-1" d="M181.47,627.16c19.65,0,32.53,3.48,39,10.83,2.8,3.28,4.25,6.67,4.28,10.18" transform="translate(-77.3 -535.86)"/>
    <path class="cls-2" d="M125.12,724.09c-25.09,0-40.14-6.24-44.86-18a21.12,21.12,0,0,1-1.45-7.38" transform="translate(-77.3 -535.86)"/>
    <path class="cls-2" d="M507,720.3c-3.2-3-5.64-5.3-7.34-7a98.84,98.84,0,0,1-8.95-10.63L483.05,692c-4.91-6.81-9.6-11.16-14.23-13.27s-11.08-3.12-19.64-3.12" transform="translate(-77.3 -535.86)"/>
    <path class="cls-4" d="M477.87,667.65" transform="translate(-77.3 -535.86)"/>
    <path class="cls-1" d="M428.7,628.35a112.67,112.67,0,0,1,20,1.63,75,75,0,0,1,25.84,10.33,39.54,39.54,0,0,1,8.83,7.7c3.09,3.66,4.61,7.39,4.49,11.18" transform="translate(-77.3 -535.86)"/>
    <path class="cls-2" d="M459.51,655.8q.39-2.28-2-5.61a23.26,23.26,0,0,0-13.75-9.06,54.79,54.79,0,0,0-13-1.25" transform="translate(-77.3 -535.86)"/>
    <path class="cls-1" d="M411.85,660.65h31.08" transform="translate(-77.3 -535.86)"/>
    <path class="cls-1" d="M477.87,667.65A65.35,65.35,0,0,1,497.78,675c5.55,3.32,11.31,8.57,17.44,16l6.21,7.52a110.85,110.85,0,0,0,10.15,11.15,35.51,35.51,0,0,0,12.7,7.3" transform="translate(-77.3 -535.86)"/>
    <path class="cls-1" d="M182.88,574.22h31.19" transform="translate(-77.3 -535.86)"/>
    <path class="cls-2" d="M224.28,554.28H196.52" transform="translate(-77.3 -535.86)"/>
    <line class="cls-1" x1="140.23" y1="65.62" x2="208.77" y2="2.32"/>
    <line class="cls-2" x1="192.9" y1="48.22" x2="178.27" y2="65.62"/>
    <line class="cls-2" x1="265.64" y1="65.62" x2="251.4" y2="48.22"/>
    <line class="cls-1" x1="236.86" y1="2.32" x2="305.07" y2="65.62"/>
    <line class="cls-2" x1="222.55" y1="12.97" x2="203.34" y2="35.81"/>
    <path class="cls-3" d="M318.55,571.68" transform="translate(-77.3 -535.86)"/>
    <line class="cls-2" x1="241.25" y1="35.81" x2="222.55" y2="12.97"/>
    <line class="cls-2" x1="328.04" y1="65.62" x2="294.57" y2="2.32"/>
    <line class="cls-1" x1="341.84" y1="34.86" x2="363.57" y2="65.62"/>
    <path class="cls-3" d="M507,601.48" transform="translate(-77.3 -535.86)"/>
    <path class="cls-1" d="M544.28,599.18l2.85,2.3" transform="translate(-77.3 -535.86)"/>
    <line class="cls-2" x1="178.27" y1="65.62" x2="140.23" y2="65.62"/>
    <line class="cls-2" x1="251.4" y1="48.22" x2="192.9" y2="48.22"/>
    <line class="cls-2" x1="305.07" y1="65.62" x2="265.64" y2="65.62"/>
    <line class="cls-1" x1="208.77" y1="2.32" x2="236.86" y2="2.32"/>
    <line class="cls-1" x1="203.34" y1="35.81" x2="241.25" y2="35.81"/>
    <line class="cls-2" x1="363.57" y1="65.62" x2="328.04" y2="65.62"/>
    <path class="cls-2" d="M547.13,601.48H507" transform="translate(-77.3 -535.86)"/>
    <line class="cls-1" x1="324.44" y1="10.26" x2="334.55" y2="24.55"/>
    <path class="cls-1" d="M138.29,588.26c11.65,0,22-1.91,30.73-5.63a59,59,0,0,0,13.86-8.41" transform="translate(-77.3 -535.86)"/>
    <path class="cls-2" d="M175.4,545.44A78.28,78.28,0,0,0,148.72,550a69,69,0,0,0-24,14.59c-5.83,5.41-8.87,10-8.86,13.76" transform="translate(-77.3 -535.86)"/>
    <path class="cls-2" d="M196.52,554.28c0-.11,0-.22,0-.32" transform="translate(-77.3 -535.86)"/>
    <path class="cls-2" d="M224.72,551.82a7,7,0,0,1-.44,2.46" transform="translate(-77.3 -535.86)"/>
    <path class="cls-1" d="M78.81,586.65c-.18-6.47,5.35-14,15.82-22.29,12.72-10.06,27.36-17,44.26-21.51a163,163,0,0,1,42.58-5.49" transform="translate(-77.3 -535.86)"/>
    <path class="cls-2" d="M214.07,574.22c-6.73,7.88-17.77,14.83-33.33,20.57-16.54,6.1-35.35,9.3-55.62,9.3" transform="translate(-77.3 -535.86)"/>
    <path class="cls-2" d="M449.18,570.73h-30" transform="translate(-77.3 -535.86)"/>
    <path class="cls-2" d="M487.82,559.41c-.13,2.7-3.43,4.66-9.95,5.83" transform="translate(-77.3 -535.86)"/>
    <path class="cls-1" d="M371.87,538.18H428.7" transform="translate(-77.3 -535.86)"/>
    <path class="cls-2" d="M430.75,546.12h-29" transform="translate(-77.3 -535.86)"/>
    <path class="cls-1" d="M442.93,560.42c6.17,0,10.5-.32,12.95-.95,2.16-.55,3.36-1.35,3.63-2.39" transform="translate(-77.3 -535.86)"/>
    <path class="cls-1" d="M115.82,578.33a6,6,0,0,0,1,3.4c2.89,4.3,10.08,6.53,21.43,6.53" transform="translate(-77.3 -535.86)"/>
    <path class="cls-2" d="M196.51,554a6.3,6.3,0,0,0-2.71-5.33c-3.14-2.15-9.25-3.19-18.4-3.19" transform="translate(-77.3 -535.86)"/>
    <path class="cls-1" d="M181.47,537.36c19.65,0,32.53,2.4,39,7.46,2.8,2.25,4.25,4.59,4.28,7" transform="translate(-77.3 -535.86)"/>
    <path class="cls-2" d="M125.12,604.09c-25.09,0-40.14-4.29-44.86-12.36a10.73,10.73,0,0,1-1.45-5.08" transform="translate(-77.3 -535.86)"/>
    <path class="cls-2" d="M507,601.48q-4.8-3-7.34-4.85a81.79,81.79,0,0,1-8.95-7.32l-7.65-7.3c-4.91-4.69-9.6-7.68-14.23-9.14s-11.08-2.14-19.64-2.14" transform="translate(-77.3 -535.86)"/>
    <path class="cls-4" d="M477.87,565.24" transform="translate(-77.3 -535.86)"/>
    <path class="cls-1" d="M428.7,538.18a164.71,164.71,0,0,1,20,1.12,98.84,98.84,0,0,1,14.87,3.14,89.51,89.51,0,0,1,11,4,38.79,38.79,0,0,1,8.83,5.3c3.09,2.52,4.61,5.08,4.49,7.69" transform="translate(-77.3 -535.86)"/>
    <path class="cls-2" d="M459.51,557.08q.39-1.58-2-3.86c-3.29-3.16-7.87-5.21-13.75-6.24a79,79,0,0,0-13-.86" transform="translate(-77.3 -535.86)"/>
    <path class="cls-1" d="M411.85,560.42h31.08" transform="translate(-77.3 -535.86)"/>
    <path class="cls-1" d="M477.87,565.24a85.65,85.65,0,0,1,19.91,5.06,68,68,0,0,1,17.44,11l6.21,5.17a95.9,95.9,0,0,0,10.15,7.68,41.84,41.84,0,0,0,12.7,5" transform="translate(-77.3 -535.86)"/>
</svg>
