<svg id="Layer_1" data-name="Layer 1" xmlns="http://www.w3.org/2000/svg" xmlns:xlink="http://www.w3.org/1999/xlink" width="475" height="200">
    <defs>
        <style>
            .cls-1{fill:url(#linear-gradient);}
            .cls-2{fill:url(#linear-gradient-2);}
            .cls-3{fill:url(#linear-gradient-3);}
            .cls-4{fill:url(#linear-gradient-4);}
            .cls-5{fill:url(#linear-gradient-5);}
            .cls-6{fill:url(#linear-gradient-6);}
            .cls-7{fill:url(#linear-gradient-7);}
            .cls-8{fill:url(#linear-gradient-8);}
            .cls-9{fill:url(#linear-gradient-9);}
            .cls-10{fill:url(#linear-gradient-10);}
            .cls-11{fill:url(#linear-gradient-11);}
            .cls-12{fill:url(#linear-gradient-12);}
            .cls-13{fill:url(#linear-gradient-13);}
            .cls-14{fill:url(#linear-gradient-14);}
            .cls-15{fill:url(#linear-gradient-15);}
            .cls-16{fill:url(#linear-gradient-16);}
            .cls-17{fill:url(#linear-gradient-17);}
            .cls-18{fill:url(#linear-gradient-18);}
            .cls-19{fill:url(#linear-gradient-19);}
            .cls-20{fill:url(#linear-gradient-20);}
            .cls-21{fill:url(#linear-gradient-21);}
            .cls-22{fill:url(#linear-gradient-22);}
            .cls-23{fill:none;}
            .cls-23,.cls-24{stroke:#231f20;}
            .cls-24{fill:#fff;stroke-miterlimit:10;}
        </style>
        <linearGradient id="linear-gradient" x1="211.94" y1="11.97" x2="211.94" y2="140.14" gradientUnits="userSpaceOnUse">
            <stop offset="0" stop-color="#00a651" stop-opacity="0"/>
            <stop offset="1" stop-color="#00a651"/>
        </linearGradient>
        <linearGradient id="linear-gradient-2" x1="230.9" y1="11.97" x2="230.9" y2="140.14" xlink:href="#linear-gradient"/>
        <linearGradient id="linear-gradient-3" x1="184.59" y1="47.22" x2="184.59" y2="183.43" xlink:href="#linear-gradient"/>
        <linearGradient id="linear-gradient-4" x1="257.52" y1="47.22" x2="257.52" y2="183.43" xlink:href="#linear-gradient"/>
        <linearGradient id="linear-gradient-5" x1="158.25" y1="64.62" x2="158.25" y2="183.43" xlink:href="#linear-gradient"/>
        <linearGradient id="linear-gradient-6" x1="284.36" y1="64.62" x2="284.36" y2="183.43" xlink:href="#linear-gradient"/>
        <linearGradient id="linear-gradient-7" x1="527.06" y1="601.48" x2="527.06" y2="720.3" xlink:href="#linear-gradient"/>
        <linearGradient id="linear-gradient-8" x1="482.84" y1="559.41" x2="482.84" y2="667.65" xlink:href="#linear-gradient"/>
        <linearGradient id="linear-gradient-9" x1="210.4" y1="554.28" x2="210.4" y2="651.73" xlink:href="#linear-gradient"/>
        <linearGradient id="linear-gradient-10" x1="196.51" y1="553.96" x2="196.51" y2="651.73" xlink:href="#linear-gradient"/>
        <linearGradient id="linear-gradient-11" x1="224.5" y1="551.82" x2="224.5" y2="651.73" xlink:href="#linear-gradient"/>
        <linearGradient id="linear-gradient-12" x1="185.96" y1="545.44" x2="185.96" y2="651.26" xlink:href="#linear-gradient"/>
        <linearGradient id="linear-gradient-13" x1="145.61" y1="545.44" x2="145.61" y2="686.67" xlink:href="#linear-gradient"/>
        <linearGradient id="linear-gradient-14" x1="169.6" y1="574.22" x2="169.6" y2="724.09" xlink:href="#linear-gradient"/>
        <linearGradient id="linear-gradient-15" x1="101.96" y1="586.65" x2="101.96" y2="724.09" xlink:href="#linear-gradient"/>
        <linearGradient id="linear-gradient-16" x1="310.3" y1="1.32" x2="310.3" y2="183.43" xlink:href="#linear-gradient"/>
        <linearGradient id="linear-gradient-17" x1="344.8" y1="64.62" x2="344.8" y2="183.43" xlink:href="#linear-gradient"/>
        <linearGradient id="linear-gradient-18" x1="478.08" y1="570.73" x2="478.08" y2="720.3" xlink:href="#linear-gradient"/>
        <linearGradient id="linear-gradient-19" x1="221.15" y1="47.22" x2="221.15" y2="158.16" xlink:href="#linear-gradient"/>
        <linearGradient id="linear-gradient-20" x1="355.86" y1="33.86" x2="355.86" y2="138.76" xlink:href="#linear-gradient"/>
        <linearGradient id="linear-gradient-21" x1="337.95" y1="9.26" x2="337.95" y2="103.02" xlink:href="#linear-gradient"/>
        <linearGradient id="linear-gradient-22" x1="445.16" y1="546.12" x2="445.16" y2="655.8" xlink:href="#linear-gradient"/>
    </defs>
    <title>extrusion_3</title>
    <polyline class="cls-1" points="202.34 34.81 221.55 11.97 221.55 106.96 202.34 140.14"/>
    <polyline class="cls-2" points="221.55 11.97 240.25 34.81 240.25 140.14 221.55 106.96"/>
    <polyline class="cls-3" points="177.27 64.62 191.9 47.22 191.9 158.16 177.27 183.43"/>
    <polyline class="cls-4" points="250.4 47.22 264.64 64.62 264.64 183.43 250.4 158.16"/>
    <polyline class="cls-5" points="139.23 64.62 177.27 64.62 177.27 183.43 139.23 183.43"/>
    <polyline class="cls-6" points="264.64 64.62 304.07 64.62 304.07 183.43 264.64 183.43"/>
    <path class="cls-7" d="M507,601.48h40.14V720.3H507" transform="translate(-78.3 -536.86)"/>
    <path class="cls-8" d="M477.87,565.24c6.52-1.17,9.82-3.13,9.95-5.83v99.78c-.13,3.91-3.43,6.76-9.95,8.46" transform="translate(-78.3 -536.86)"/>
    <path class="cls-9" d="M196.52,554.28h27.76v97.45H196.52" transform="translate(-78.3 -536.86)"/>
    <path class="cls-10" d="M196.52,554.28c0-.11,0-.22,0-.32v97.3c0,.16,0,.31,0,.47" transform="translate(-78.3 -536.86)"/>
    <path class="cls-11" d="M224.28,554.28a7,7,0,0,0,.44-2.46v96.35a14.16,14.16,0,0,1-.44,3.56" transform="translate(-78.3 -536.86)"/>
    <path class="cls-12" d="M196.51,554a6.3,6.3,0,0,0-2.71-5.33c-3.14-2.15-9.25-3.19-18.4-3.19v93.45c9.15,0,15.26,1.52,18.4,4.63,1.72,1.72,2.63,4.28,2.71,7.74" transform="translate(-78.3 -536.86)"/>
    <path class="cls-13" d="M175.4,545.44A78.28,78.28,0,0,0,148.72,550a69,69,0,0,0-24,14.59c-5.83,5.41-8.87,10-8.86,13.76V686.67c0-5.4,3-12.13,8.86-20,7.14-9.63,15.11-16.55,24-21.19a56.79,56.79,0,0,1,26.68-6.6" transform="translate(-78.3 -536.86)"/>
    <path class="cls-14" d="M214.07,574.22c-6.73,7.88-17.77,14.83-33.33,20.57-16.54,6.1-35.35,9.3-55.62,9.3v120c20.27,0,39.08-4.64,55.62-13.51,15.56-8.33,26.6-18.44,33.33-29.89" transform="translate(-78.3 -536.86)"/>
    <path class="cls-15" d="M125.12,604.09c-25.09,0-40.14-4.29-44.86-12.36a10.73,10.73,0,0,1-1.45-5.08v112.1a21.12,21.12,0,0,0,1.45,7.38c4.72,11.72,19.77,18,44.86,18" transform="translate(-78.3 -536.86)"/>
    <polyline class="cls-16" points="327.04 64.62 293.57 1.32 293.57 91.48 327.04 183.43"/>
    <polyline class="cls-17" points="362.57 64.62 327.04 64.62 327.04 183.43 362.57 183.43"/>
    <path class="cls-18" d="M449.18,570.73c8.56,0,15.09.7,19.64,2.14s9.32,4.45,14.23,9.14l7.65,7.3a81.79,81.79,0,0,0,8.95,7.32q2.55,1.82,7.34,4.85V720.3c-3.2-3-5.64-5.3-7.34-7a98.84,98.84,0,0,1-8.95-10.63L483.05,692c-4.91-6.81-9.6-11.16-14.23-13.27s-11.08-3.12-19.64-3.12" transform="translate(-78.3 -536.86)"/>
    <polyline class="cls-19" points="191.9 47.22 250.4 47.22 250.4 158.16 191.9 158.16"/>
    <polyline class="cls-20" points="340.83 33.86 370.88 33.86 370.88 138.76 340.83 138.76"/>
    <polyline class="cls-21" points="323.44 9.26 352.45 9.26 352.45 103.02 323.44 103.02"/>
    <path class="cls-22" d="M430.75,546.12a79,79,0,0,1,13,.86c5.88,1,10.46,3.08,13.75,6.24q2.39,2.28,2,3.86V655.8q.39-2.28-2-5.61a23.26,23.26,0,0,0-13.75-9.06,54.79,54.79,0,0,0-13-1.25" transform="translate(-78.3 -536.86)"/>
    <path class="cls-23" d="M138.89,635.13a116,116,0,0,1,42.58-8c19.65,0,32.53,3.48,39,10.83,3.73,4.37,5.07,8.94,3.84,13.74H196.52c0-3.7-.92-6.41-2.72-8.21-3.14-3.11-9.25-4.63-18.4-4.63a56.79,56.79,0,0,0-26.68,6.6c-8.93,4.64-16.9,11.56-24,21.19-7.77,10.48-10.59,19-7.82,24.93,2.89,6.25,10.08,9.49,21.43,9.49,11.65,0,22-2.79,30.73-8.19a60,60,0,0,0,13.86-12.22h31.19c-6.73,11.45-17.77,21.56-33.33,29.89-16.54,8.87-35.35,13.51-55.62,13.51-25.09,0-40.14-6.24-44.86-18-4.3-10.85,1-24.41,14.37-39.75A110.34,110.34,0,0,1,138.89,635.13Zm147.18-6.78h28.09l68.21,91.95H342.94L328.7,695H270.2L255.57,720.3h-38ZM280.64,677h37.91l-18.7-33.18Zm168-47a75,75,0,0,1,25.84,10.33,39.54,39.54,0,0,1,8.83,7.7c3.09,3.66,4.61,7.39,4.49,11.18s-3.43,6.76-9.95,8.46A65.35,65.35,0,0,1,497.78,675c5.55,3.32,11.31,8.57,17.44,16l6.21,7.52a110.85,110.85,0,0,0,10.15,11.15,35.51,35.51,0,0,0,12.7,7.3l2.85,3.35H507c-3.2-3-5.64-5.3-7.34-7a98.84,98.84,0,0,1-8.95-10.63L483.05,692c-4.91-6.81-9.6-11.16-14.23-13.27s-11.08-3.12-19.64-3.12h-30l21.74,44.68H405.34l-33.47-91.95H428.7A112.67,112.67,0,0,1,448.66,630Zm-46.91,9.9,10.1,20.77h31.08c6.17,0,10.5-.46,12.95-1.38,4.31-1.58,4.81-4.65,1.63-9.08a23.26,23.26,0,0,0-13.75-9.06,54.79,54.79,0,0,0-13-1.25Z" transform="translate(-78.3 -536.86)"/>
    <path class="cls-24" d="M138.89,542.85a163,163,0,0,1,42.58-5.49c19.65,0,32.53,2.4,39,7.46,3.73,3,5.07,6.16,3.84,9.46H196.52a6.39,6.39,0,0,0-2.72-5.65c-3.14-2.15-9.25-3.19-18.4-3.19A78.28,78.28,0,0,0,148.72,550a69,69,0,0,0-24,14.59c-7.77,7.21-10.59,13-7.82,17.16,2.89,4.3,10.08,6.53,21.43,6.53,11.65,0,22-1.91,30.73-5.63a59,59,0,0,0,13.86-8.41h31.19c-6.73,7.88-17.77,14.83-33.33,20.57-16.54,6.1-35.35,9.3-55.62,9.3-25.09,0-40.14-4.29-44.86-12.36-4.3-7.47,1-16.81,14.37-27.37C107.35,554.3,122,547.36,138.89,542.85Zm147.18-4.67h28.09l68.21,63.3H342.94l-14.24-17.4H270.2l-14.63,17.4h-38Zm-5.43,33.5h37.91l-18.7-22.85Zm168-32.38a98.84,98.84,0,0,1,14.87,3.14,89.51,89.51,0,0,1,11,4,38.79,38.79,0,0,1,8.83,5.3c3.09,2.52,4.61,5.08,4.49,7.69s-3.43,4.66-9.95,5.83a85.65,85.65,0,0,1,19.91,5.06,68,68,0,0,1,17.44,11l6.21,5.17a95.9,95.9,0,0,0,10.15,7.68,41.84,41.84,0,0,0,12.7,5l2.85,2.3H507q-4.8-3-7.34-4.85a81.79,81.79,0,0,1-8.95-7.32l-7.65-7.3c-4.91-4.69-9.6-7.68-14.23-9.14s-11.08-2.14-19.64-2.14h-30l21.74,30.75H405.34l-33.47-63.3H428.7A164.71,164.71,0,0,1,448.66,539.3Zm-46.91,6.82,10.1,14.3h31.08c6.17,0,10.5-.32,12.95-.95,4.31-1.09,4.81-3.2,1.63-6.25S449.64,548,443.76,547a79,79,0,0,0-13-.86Z" transform="translate(-78.3 -536.86)"/>
</svg>
