<svg id="Layer_1" data-name="Layer 1" xmlns="http://www.w3.org/2000/svg" width="475" height="200">
    <defs>
        <style>
            .cls-1{fill:none;}
            .cls-1,.cls-2{stroke:#231f20;}
            .cls-2{fill:#fff;stroke-miterlimit:10;}
        </style>
    </defs>
    <title>extrusion_1</title>
    <path class="cls-1" d="M138.89,635.13a116,116,0,0,1,42.58-8c19.65,0,32.53,3.48,39,10.83,3.73,4.37,5.07,8.94,3.84,13.74H196.52c0-3.7-.92-6.41-2.72-8.21-3.14-3.11-9.25-4.63-18.4-4.63a56.79,56.79,0,0,0-26.68,6.6c-8.93,4.64-16.9,11.56-24,21.19-7.77,10.48-10.59,19-7.82,24.93,2.89,6.25,10.08,9.49,21.43,9.49,11.65,0,22-2.79,30.73-8.19a60,60,0,0,0,13.86-12.22h31.19c-6.73,11.45-17.77,21.56-33.33,29.89-16.54,8.87-35.35,13.51-55.62,13.51-25.09,0-40.14-6.24-44.86-18-4.3-10.85,1-24.41,14.37-39.75A110.34,110.34,0,0,1,138.89,635.13Zm147.18-6.78h28.09l68.21,91.95H342.94L328.7,695H270.2L255.57,720.3h-38ZM280.64,677h37.91l-18.7-33.18Zm168-47a75,75,0,0,1,25.84,10.33,39.54,39.54,0,0,1,8.83,7.7c3.09,3.66,4.61,7.39,4.49,11.18s-3.43,6.76-9.95,8.46A65.35,65.35,0,0,1,497.78,675c5.55,3.32,11.31,8.57,17.44,16l6.21,7.52a110.85,110.85,0,0,0,10.15,11.15,35.51,35.51,0,0,0,12.7,7.3l2.85,3.35H507c-3.2-3-5.64-5.3-7.34-7a98.84,98.84,0,0,1-8.95-10.63L483.05,692c-4.91-6.81-9.6-11.16-14.23-13.27s-11.08-3.12-19.64-3.12h-30l21.74,44.68H405.34l-33.47-91.95H428.7A112.67,112.67,0,0,1,448.66,630Zm-46.91,9.9,10.1,20.77h31.08c6.17,0,10.5-.46,12.95-1.38,4.31-1.58,4.81-4.65,1.63-9.08a23.26,23.26,0,0,0-13.75-9.06,54.79,54.79,0,0,0-13-1.25Z" transform="translate(-78.3 -536.86)"/>
    <path class="cls-2" d="M138.89,542.85a163,163,0,0,1,42.58-5.49c19.65,0,32.53,2.4,39,7.46,3.73,3,5.07,6.16,3.84,9.46H196.52a6.39,6.39,0,0,0-2.72-5.65c-3.14-2.15-9.25-3.19-18.4-3.19A78.28,78.28,0,0,0,148.72,550a69,69,0,0,0-24,14.59c-7.77,7.21-10.59,13-7.82,17.16,2.89,4.3,10.08,6.53,21.43,6.53,11.65,0,22-1.91,30.73-5.63a59,59,0,0,0,13.86-8.41h31.19c-6.73,7.88-17.77,14.83-33.33,20.57-16.54,6.1-35.35,9.3-55.62,9.3-25.09,0-40.14-4.29-44.86-12.36-4.3-7.47,1-16.81,14.37-27.37C107.35,554.3,122,547.36,138.89,542.85Zm147.18-4.67h28.09l68.21,63.3H342.94l-14.24-17.4H270.2l-14.63,17.4h-38Zm-5.43,33.5h37.91l-18.7-22.85Zm168-32.38a98.84,98.84,0,0,1,14.87,3.14,89.51,89.51,0,0,1,11,4,38.79,38.79,0,0,1,8.83,5.3c3.09,2.52,4.61,5.08,4.49,7.69s-3.43,4.66-9.95,5.83a85.65,85.65,0,0,1,19.91,5.06,68,68,0,0,1,17.44,11l6.21,5.17a95.9,95.9,0,0,0,10.15,7.68,41.84,41.84,0,0,0,12.7,5l2.85,2.3H507q-4.8-3-7.34-4.85a81.79,81.79,0,0,1-8.95-7.32l-7.65-7.3c-4.91-4.69-9.6-7.68-14.23-9.14s-11.08-2.14-19.64-2.14h-30l21.74,30.75H405.34l-33.47-63.3H428.7A164.71,164.71,0,0,1,448.66,539.3Zm-46.91,6.82,10.1,14.3h31.08c6.17,0,10.5-.32,12.95-.95,4.31-1.09,4.81-3.2,1.63-6.25S449.64,548,443.76,547a79,79,0,0,0-13-.86Z" transform="translate(-78.3 -536.86)"/>
</svg>
